<?xml version="1.0" encoding="utf-8"?>
<!-- Generator: Adobe Illustrator 27.10.0, SVG Export Plug-In . SVG Version: 6.00 Build 0)  -->
<svg version="1.1"
	 id="svg972" xmlns:dc="http://purl.org/dc/elements/1.1/" xmlns:svg="http://www.w3.org/2000/svg" xmlns:rdf="http://www.w3.org/1999/02/22-rdf-syntax-ns#" xmlns:cc="http://creativecommons.org/ns#" xmlns:inkscape="http://www.inkscape.org/namespaces/inkscape" xmlns:sodipodi="http://sodipodi.sourceforge.net/DTD/sodipodi-0.dtd" inkscape:version="1.0.1 (3bc2e813f5, 2020-09-07)"
	 xmlns="http://www.w3.org/2000/svg" xmlns:xlink="http://www.w3.org/1999/xlink" x="0px" y="0px" viewBox="0 0 1356.5 111.3"
	 style="enable-background:new 0 0 1356.5 111.3;" xml:space="preserve">
<style type="text/css">
	.st0{fill:#FFFFFF;}
	.st1{fill:#911B1D;}
	.st2{fill:#58595B;}
</style>
<rect x="0" class="st0" width="1356.5" height="111.3"/>
<sodipodi:namedview  bordercolor="#666666" borderopacity="1" gridtolerance="10" guidetolerance="10" id="namedview974" inkscape:current-layer="svg972" inkscape:cx="902.7147" inkscape:cy="74.168638" inkscape:pageopacity="0" inkscape:pageshadow="2" inkscape:window-height="1001" inkscape:window-maximized="1" inkscape:window-width="1920" inkscape:window-x="-9" inkscape:window-y="-9" inkscape:zoom="0.95155381" objecttolerance="10" pagecolor="#ffffff" showgrid="false">
	</sodipodi:namedview>
<g>
	<g>
		<polygon id="XMLID_00000171722066952324759280000009549022175626333087_" class="st1" points="437.4,86.4 437.4,29.9 418.3,86.4 
			405.9,86.4 386.9,29.9 386.9,86.4 373.5,86.4 373.5,4.2 390.4,4.2 412.3,68.6 433.9,4.2 450.8,4.2 450.8,86.4 		"/>
		<path id="XMLID_00000174570328214725530340000002502584538480568255_" class="st1" d="M451.2,50.2v24.1h46.5v12.2h-59.9V4.2h66.8
			v12.2h-53.4v21.9 M449.8,38.3h36v11.9h-36V38.3z"/>
		<path id="XMLID_00000020399097416147160040000004645603740146412735_" class="st1" d="M503.1,4.2h13.4v57c0,2.1,0.4,4.1,1.4,5.9
			c0.9,1.8,2.2,3.4,3.8,4.7c1.7,1.3,3.6,2.3,6,3c2.3,0.7,8.1,1.1,10.9,1.1c2.7,0,10.2-0.4,12.4-1.1c2.3-0.7,4.2-1.8,5.8-3.1
			c1.6-1.3,2.9-2.8,3.8-4.6c0.9-1.8,1.3-3.8,1.3-5.9v-57h13.4v57.6c0,3.7-0.8,7.1-2.3,10.2c-1.5,3.1-3.7,5.8-6.5,8.1
			c-2.8,2.3-6.2,4.1-10.1,5.4c-3.9,1.3-13.1,1.9-17.9,1.9c-4.9,0-12.6-0.6-16.6-1.9c-4-1.3-7.3-3.1-10.2-5.4c-2.8-2.3-5-5-6.5-8.1
			c-1.5-3.2-2.3-6.6-2.3-10.2V4.2z"/>
	</g>
	<g>
		<rect id="XMLID_00000118366637267081353760000009757752327382673802_" x="588" y="88" class="st2" width="393.6" height="0.4"/>
		<path id="XMLID_00000104703616627230040070000015334639097325121921_" class="st2" d="M609,51.9c-0.1,0.3-0.4,0.8-0.8,1.3
			c-0.4,0.5-0.9,1.1-1.4,1.7l-5.4,6.8l-5.8-7.1c-0.8-1-1.3-1.9-1.6-2.7l-0.1-0.2H588l0.5,0.6l2,2.2v13.8c0,1.9-0.3,3.5-0.8,5
			l-0.2,0.5h5.8l-0.2-0.5c-0.5-1.5-0.8-3.1-0.8-4.8V59l6.9,8.5l6.9-8.5v9.1c0,2.2-0.3,3.9-0.8,5.2l-0.2,0.5h5.8l-0.2-0.5
			c-0.5-1.4-0.8-3.1-0.8-5.2v-9.6c0-2.1,0.1-3.5,0.3-4.1c0.2-0.7,0.6-1.4,1.3-2.1l0.5-0.6h-5.3L609,51.9z"/>
		<path id="XMLID_00000100361816468519559520000011996672013129369997_" class="st2" d="M623.2,52.2l0.2-0.5h-5.8l0.2,0.5
			c0.5,1.3,0.8,3,0.8,5.1v10.1c0,2.7-0.3,4.7-0.8,5.9l-0.2,0.5h0.5h5.3l-0.1-0.5c-0.5-1.6-0.8-3.6-0.8-5.8V57.5
			C622.4,55.4,622.6,53.7,623.2,52.2"/>
		<path id="XMLID_00000089532445757438742800000000959894663594274238_" class="st2" d="M630.5,51.7h-2.6h-0.4l0.1,0.4
			c0.5,2,0.8,4,0.8,5.9v9.4c0,2.2-0.3,4.2-0.8,5.9l-0.1,0.4h0.5h5.2c3.2,0,5.9-1,8.1-3.1c2.2-2,3.3-4.7,3.3-7.7c0-3-1.1-5.7-3.4-7.9
			C638.8,52.8,635.3,51.7,630.5,51.7 M638.1,68.3c-1.4,1.5-3.3,2.4-5.8,2.6V54.3c2.6,0.4,4.5,1.3,5.9,2.8c1.4,1.6,2.1,3.4,2.1,5.5
			C640.3,64.8,639.6,66.8,638.1,68.3"/>
		<path id="XMLID_00000039095636213925786640000000703365749450536630_" class="st2" d="M650.8,51.7h-2.6h-0.5l0.1,0.4
			c0.5,2,0.8,4,0.8,5.9v9.4c0,2.2-0.3,4.2-0.8,5.9l-0.1,0.4h0.5h5.2c3.2,0,5.9-1,8-3.1c2.2-2,3.3-4.7,3.3-7.7c0-3-1.1-5.7-3.4-7.9
			C659.1,52.8,655.6,51.7,650.8,51.7 M658.4,68.3c-1.4,1.5-3.3,2.4-5.7,2.6V54.3c2.6,0.4,4.5,1.3,5.9,2.8c1.4,1.6,2.1,3.4,2.1,5.5
			C660.6,64.8,659.9,66.8,658.4,68.3"/>
		<path id="XMLID_00000107586201323548012600000015147226300792941241_" class="st2" d="M673.4,71V58.3c0-2.5,0.3-4.6,0.8-6.2
			l0.2-0.5h-5.8l0.2,0.5c0.5,1.3,0.8,3.1,0.8,5.6v9.4c0,2.9-0.3,5-0.8,6.1l-0.2,0.5h11.3l2.2-5l-0.8,0.4
			C679,70.2,676.4,70.8,673.4,71"/>
		<path id="XMLID_00000018209361916774692210000011098357263318278567_" class="st2" d="M690.1,71h-0.7v-7h0.4
			c1.1,0,2.4,0.3,4.1,0.8l0.2,0.1l2.4-3.8h-7.1v-6.7h0.3c1.2,0,2.2,0.1,3,0.4c0.8,0.2,1.6,0.5,2.3,0.8l0.3,0.1l2.1-4.1h-12.7
			l0.1,0.5c0.5,1.6,0.8,3.5,0.8,5.7v9.8c0,2.1-0.3,4-0.8,5.7l-0.1,0.4h12.1l2-4.5l-0.7,0.2C694.8,70.5,692.2,71,690.1,71"/>
		<path id="XMLID_00000098191007701722120890000004006608970948915099_" class="st2" d="M718.4,71h-0.6v-7h0.4
			c1.1,0,2.4,0.3,4.1,0.8l0.3,0.1l2.4-3.8h-7.1v-6.7h0.3c1.2,0,2.2,0.1,2.9,0.4c0.8,0.2,1.6,0.5,2.2,0.8l0.3,0.1l2-4.1h-12.7
			l0.1,0.5c0.5,1.6,0.8,3.5,0.8,5.7v9.8c0,2.1-0.3,4-0.8,5.7l-0.1,0.4H725l2-4.5l-0.7,0.2C723.1,70.5,720.5,71,718.4,71"/>
		<path id="XMLID_00000085933773427285246060000009946451612152803214_" class="st2" d="M748.2,67.5l-7.4-16h-0.4h-0.2l-9.4,18.5
			c-0.7,1.4-1.4,2.5-2.2,3.3l-0.5,0.6h6.5v-0.3v-0.4c0-1,0.3-2.2,1-3.7l1.1-2.2h7.1l1.1,2.6c0.6,1.4,0.9,2.6,0.9,3.8v0.3h0.4h5.8
			l-0.4-0.6C750.3,71.6,749.2,69.7,748.2,67.5 M738.1,63.9l2.2-4.6l2,4.6H738.1z"/>
		<path id="XMLID_00000080910685485007080020000014665364526850166706_" class="st2" d="M761.5,61.2c-1.3-0.8-2.2-1.5-2.8-2.1
			c-0.5-0.6-0.8-1.2-0.8-1.8c0-0.7,0.3-1.3,0.8-1.8c0.5-0.5,1.3-0.7,2.2-0.7c1.2,0,2.5,0.5,3.7,1.5l0.6,0.5v-4.2l-0.2-0.1
			c-0.7-0.4-1.5-0.6-2.3-0.8c-0.8-0.2-1.5-0.3-2.3-0.3c-1.9,0-3.5,0.7-4.8,1.9c-1.3,1.3-2,2.9-2,4.7c0,1.2,0.4,2.2,1.1,3.1
			c0.7,0.9,1.9,1.9,3.5,3.1c1.1,0.7,2.1,1.3,2.9,1.9c0.7,0.5,1.1,1.2,1.1,2c0,0.7-0.3,1.3-0.9,1.8c-0.6,0.5-1.2,0.8-2.1,0.8
			c-1.2,0-2.6-0.8-4-2.5l-0.6-0.7v0.9v4.8l0.2,0.1c1.2,0.4,2.4,0.6,3.8,0.6c2.3,0,4.1-0.6,5.5-1.8c1.4-1.2,2.2-2.8,2.2-4.7
			c0-1.3-0.4-2.5-1.1-3.4C764.5,63.3,763.3,62.4,761.5,61.2"/>
		<path id="XMLID_00000031178548089569501430000001081595481873893002_" class="st2" d="M768.2,56.3l0.7-0.3c2.7-1,4.9-1.5,6.5-1.5
			v13.7c0,1.8-0.3,3.5-0.8,5.1l-0.1,0.5h5.8l-0.2-0.5c-0.5-1.4-0.8-3.1-0.8-5V54.5c2.1,0,3.9,0.4,5.3,1.2l0.3,0.2l1.8-4.2h-16.7
			L768.2,56.3z"/>
		<path id="XMLID_00000018938417019066978140000005881023727085849510_" class="st2" d="M820.3,52.2l0.2-0.5h-5.9l0.2,0.5
			c0.5,1.3,0.8,2.9,0.8,4.9v8.4c0,1-0.1,1.8-0.2,2.2c-0.3,0.9-0.9,1.7-1.8,2.4c-0.9,0.6-1.8,0.9-2.7,0.9c-1.4,0-2.6-0.5-3.6-1.5
			c-1-0.9-1.5-2.6-1.5-5v-7.4c0-1.7,0.2-3.4,0.8-4.9l0.1-0.5h-5.8l0.2,0.5c0.5,1.3,0.8,2.9,0.8,4.9v8.1c0,2.8,0.6,5,1.9,6.6
			c1.3,1.5,3.2,2.3,5.4,2.3h0c1.4,0,2.7-0.2,3.9-0.7c0.9-0.4,1.7-0.8,2.4-1.2v1.4v0.3h4.8l-0.1-0.4c-0.5-1.8-0.8-3.8-0.8-6.1V57
			C819.5,55,819.8,53.4,820.3,52.2"/>
		<path id="XMLID_00000134223682980449261290000002292037911958017413_" class="st2" d="M844.6,67.7V57.4c0-2,0.3-3.7,0.8-5.2
			l0.2-0.5H840l0.2,0.5c0.5,1.4,0.8,3.5,0.8,6.1V67L831.3,55c-0.9-1.2-1.6-2.2-1.9-3.1l-0.1-0.2H823l0.7,0.6c1.2,1,2.2,2,2.8,2.8
			v12.3c0,2.5-0.2,4.4-0.8,5.9l-0.1,0.5h5.5l-0.2-0.5c-0.5-1.5-0.8-3.4-0.8-5.9v-7.7l7.9,9.9c1.4,1.8,2.3,3.2,2.6,3.9l0.1,0.2h4.8
			l-0.2-0.5C844.9,72.1,844.6,70.2,844.6,67.7"/>
		<path id="XMLID_00000134943702971883663160000002184226883309429387_" class="st2" d="M855.4,52.2l0.2-0.5h-5.8l0.2,0.5
			c0.5,1.3,0.8,3,0.8,5.1v10.1c0,2.7-0.3,4.7-0.8,5.9l-0.2,0.5h0.5h5.3l-0.1-0.5c-0.5-1.6-0.8-3.6-0.8-5.8V57.5
			C854.6,55.4,854.9,53.7,855.4,52.2"/>
		<path id="XMLID_00000149377847174742149750000000619197493732330170_" class="st2" d="M874.4,52.2c0.2,0.5,0.2,0.9,0.2,1.4
			c0,0.8-0.2,1.7-0.6,2.7l-4.7,11.2L865,56.2c-0.4-1.1-0.6-2.1-0.6-3c0-0.2,0.1-0.5,0.2-1l0.1-0.4h-6.8l0.6,0.6c0.4,0.3,0.9,1,1.4,2
			c0.5,1,1,2.1,1.5,3.4l6.3,16.3h2.7h0.2l6.6-15.6c1.3-3.2,2.5-5.3,3.4-6.2l0.6-0.6h-7L874.4,52.2z"/>
		<path id="XMLID_00000144306337211998795640000010186672481421466498_" class="st2" d="M889.2,71h-0.7v-7h0.4c1.1,0,2.4,0.3,4,0.8
			l0.3,0.1l2.3-3.8h-7.1v-6.7h0.3c1.2,0,2.2,0.1,3,0.4c0.8,0.2,1.5,0.5,2.3,0.8l0.3,0.1l2-4.1h-12.7l0.2,0.5
			c0.5,1.6,0.8,3.5,0.8,5.7v9.8c0,2.1-0.3,4-0.8,5.7l-0.1,0.4h12.1l2-4.5l-0.7,0.2C893.9,70.5,891.2,71,889.2,71"/>
		<path id="XMLID_00000126317161961212603460000004186051906562843522_" class="st2" d="M910,64c2.6-1.4,4-3.3,4-5.8
			c0-1.9-0.8-3.5-2.4-4.7c-1.6-1.2-3.6-1.8-6.2-1.8h-4.9l0.2,0.5c0.5,1.3,0.8,2.8,0.8,4.5v11.4c0,1.6-0.3,3.4-0.8,5.3l-0.1,0.4h0.5
			h5.3l-0.2-0.5c-0.5-1.5-0.8-2.9-0.8-4.1v-4.6c2.1,2.6,3.5,4.4,4.3,5.4c0.9,1.1,2.2,2.3,3.8,3.6l0.1,0.1h3.1h0.8l-0.5-0.6
			C913.9,69.8,911.5,66.8,910,64 M908.6,61.3c-0.7,0.6-1.8,1.2-3.2,1.6v-8.6c1.3,0.2,2.3,0.6,3.1,1.4c0.9,0.8,1.3,1.7,1.3,2.9
			C909.8,59.7,909.4,60.6,908.6,61.3"/>
		<path id="XMLID_00000032642645644817643820000014826155314389366160_" class="st2" d="M927.1,61.2c-1.3-0.8-2.2-1.5-2.8-2.1
			c-0.5-0.6-0.8-1.1-0.8-1.8c0-0.8,0.3-1.3,0.8-1.8c0.6-0.5,1.3-0.7,2.3-0.7c1.2,0,2.4,0.5,3.7,1.5l0.6,0.5v-4.2l-0.2-0.1
			c-0.7-0.4-1.5-0.6-2.3-0.8c-0.8-0.2-1.5-0.3-2.2-0.3c-1.9,0-3.5,0.7-4.8,1.9c-1.3,1.3-2,2.9-2,4.7c0,1.2,0.4,2.2,1.1,3.1
			c0.7,0.9,1.9,1.9,3.5,3.1c1.1,0.7,2.1,1.3,2.9,1.9c0.7,0.5,1,1.2,1,2c0,0.7-0.3,1.3-0.9,1.8c-0.6,0.5-1.3,0.8-2.1,0.8
			c-1.2,0-2.5-0.8-4-2.5l-0.6-0.7v0.9v4.8l0.2,0.1c1.2,0.4,2.4,0.6,3.8,0.6c2.2,0,4.1-0.6,5.5-1.8c1.4-1.2,2.2-2.8,2.2-4.7
			c0-1.3-0.4-2.5-1.1-3.4C930.2,63.3,928.9,62.4,927.1,61.2"/>
		<path id="XMLID_00000129917805157092991910000005262038010170906023_" class="st2" d="M940.9,52.2l0.2-0.5h-5.8l0.2,0.5
			c0.5,1.3,0.8,3,0.8,5.1v10.1c0,2.7-0.3,4.7-0.8,5.9l-0.2,0.5h0.5h5.3l-0.2-0.5c-0.5-1.6-0.8-3.6-0.8-5.8V57.5
			C940.1,55.4,940.4,53.7,940.9,52.2"/>
		<path id="XMLID_00000179620075557043409320000017770612224943536569_" class="st2" d="M944,56.3l0.7-0.3c2.7-1,4.9-1.5,6.5-1.5
			v13.7c0,1.8-0.3,3.5-0.8,5.1l-0.2,0.5h5.8l-0.2-0.5c-0.5-1.4-0.8-3.1-0.8-5V54.5c2.1,0,3.9,0.4,5.2,1.2l0.3,0.2l1.8-4.2h-16.8
			L944,56.3z"/>
		<path id="XMLID_00000071518065742885208820000010436601885831816871_" class="st2" d="M977.3,52.1c0,0.8-0.3,1.8-1,2.9l-2.6,4.8
			l-2.6-4.7c-0.5-0.9-0.8-1.5-0.8-1.8c-0.1-0.4-0.1-0.8-0.1-1.2v-0.3h-6.3l0.8,0.6c0.7,0.6,1.5,1.5,2.1,2.7l5,8.9v5.6
			c0,1.8-0.3,3.1-0.7,3.8l-0.3,0.5h6.1l-0.4-0.6c-0.5-0.6-0.7-1.6-0.7-2.9v-6.7l4.6-8.1c1-1.8,1.8-2.9,2-3.2l0.7-0.6h-5.7V52.1z"/>
		<path id="XMLID_00000049902443806428920180000006165568457599164595_" class="st2" d="M616.8,31.1h41.2V13.7h-4.6v12.8h-5.1v-9.7
			h-4.6v9.7h-5.2v-6.6H634v6.6h-17.2h-0.2v-5.9c0-4.1-2.9-7-7.2-7h-7.7V6.3h-4.6v20.2h-5.5v4.6h24.6H616.8z M612,26.5h-10.3v-8.3
			h7.9c1.7,0,2.5,0.9,2.5,2.8V26.5z"/>
		<path id="XMLID_00000169531680260682108950000005522974115592536498_" class="st2" d="M661.9,20.6v3.4c0,4.2,3,7,7.2,7h1v1.3
			c0,0.4-0.1,0.7-0.3,1c-0.2,0.4-0.8,0.6-1.7,0.6h-6.3v4.6h5.9c4.5,0,7-2.4,7-6.8V13.7h-5.6C664.9,13.7,661.9,16.5,661.9,20.6
			 M670.2,26.5H669c-1.7,0-2.5-1-2.5-2.8v-2.6c0-1.9,0.8-2.8,2.5-2.8h1.2V26.5z"/>
		<path id="XMLID_00000144332640695775553180000006888937675576204933_" class="st2" d="M689.6,10.3h-2.2c-0.8,0-1.2-0.3-1.2-1.1
			c0-0.8,0.4-1.3,1.1-1.3h1.5V6.3h-1.3c-1.8,0-3.1,1.3-3.1,3c0,0.3,0.1,0.7,0.3,1h-1v1.8h6V10.3z"/>
		<polygon id="XMLID_00000145025235286212079660000011276219858167498368_" class="st2" points="698,6.3 693.4,6.3 693.4,26.5 
			688.8,26.5 688.8,14.5 684.3,14.5 684.3,26.5 678.6,26.5 678.6,31.1 698,31.1 		"/>
		<rect id="XMLID_00000028286156002842516750000018127064635743435946_" x="701.9" y="6.3" class="st2" width="4.6" height="24.8"/>
		<path id="XMLID_00000129194868979485141030000004851834563272660623_" class="st2" d="M726.1,20.9c0,5.2,3.6,9.3,8.7,10.2v1.3
			c-0.2,1.3-0.6,1.6-2,1.6h-7.3c-1.4,0-1.8-0.3-2-1.6V19.9H719v12c0,4.4,2.5,6.8,7,6.8h6.4c4.5,0,7-2.4,7-6.8V13.7h-5.3
			C728.3,13.7,726.1,16.7,726.1,20.9 M734.8,26.5c-2.3-1.1-4-3.5-4-5.6c0-1.7,1-2.6,2.9-2.6h1.1V26.5z"/>
		<rect id="XMLID_00000159437534598668570170000003131776468959372183_" x="733.7" y="6.3" class="st2" width="4.6" height="4.6"/>
		<rect id="XMLID_00000090259132273125571700000018424903620420389019_" x="727.3" y="6.3" class="st2" width="4.6" height="4.6"/>
		<path id="XMLID_00000058567767154782149470000007076878378965917321_" class="st2" d="M751,31.1h0.2h36.7h0.3h35.4V6.3H819v20.2
			h-30.8h-0.3V13.7h-4.6v12.8h-5.1v-9.7h-4.6v9.7h-5.2v-6.6h-4.6v6.6h-12.7H751V13.7h-4.6V31c0,2.1-1.1,3.1-3.4,3.1h-0.6v4.5h0.6
			C747.3,38.6,750.8,36.9,751,31.1"/>
		<rect id="XMLID_00000147220051691459013410000016313428628143875746_" x="773.7" y="0" class="st2" width="4.6" height="4.6"/>
		<rect id="XMLID_00000061447306573841442300000010876192522503765647_" x="770.4" y="6.5" class="st2" width="4.6" height="4.6"/>
		<rect id="XMLID_00000165914172906368504900000014310398406981729154_" x="776.9" y="6.5" class="st2" width="4.6" height="4.6"/>
		<rect id="XMLID_00000165200799890574158360000008494072127202771858_" x="827.4" y="6.3" class="st2" width="4.6" height="24.8"/>
		<rect id="XMLID_00000122701675095131080900000000102417811146925456_" x="855.4" y="6.3" class="st2" width="4.6" height="4.6"/>
		<rect id="XMLID_00000010272878689585025440000000930464423997191340_" x="848.9" y="6.3" class="st2" width="4.6" height="4.6"/>
		<path id="XMLID_00000095328856198421119190000017266536252371379082_" class="st2" d="M915.1,20.6v5.9h-20.5h-0.2h-3.3
			c2.2-2.7,3.3-5.1,3.3-7.4c0-3.6-2.3-5.4-7.1-5.4c-1.4,0-3,0.2-4.7,0.4l-2.2,5.5c2.2,1.8,3.5,4.2,4.3,6.7c-0.5,0.1-0.5,0.2-1.4,0.2
			h-23.1H860V13.7c-9,0.6-15.3,6.7-16.2,17.4h4.7c1.2-6.3,3.7-10.7,7-11.8v11.8h4.6h0.3h23.2c2.6,0,3.1-0.1,3.9-0.5
			c1.2,0.5,1.5,0.5,3.9,0.5h3.2h0.2h20.5v3.6h5.6c4.4,0,7.2-2.8,7.2-7.2V13.7h-5.6C918,13.7,915.1,16.5,915.1,20.6 M888.1,23.3
			c-0.3-1.8-0.8-3.1-2.6-5.1l1.5-0.1c2.1,0,3.1,0.6,3.1,1.7C890,20.7,889.3,21.9,888.1,23.3 M923.3,27.3c0,1.9-0.8,2.8-2.5,2.8h-1.2
			v-9c0-1.9,0.8-2.8,2.5-2.8h1.1V27.3z"/>
		<rect id="XMLID_00000027572632097561098340000006195501039364566150_" x="970.9" y="34" class="st2" width="4.6" height="4.6"/>
		<path id="XMLID_00000087400821941836588180000005445905271355797168_" class="st2" d="M936.7,31.1h44.9V20.6c0-4.1-3-7-7.2-7h-6.6
			v4.6h6.8c1.6,0,2.4,0.9,2.4,2.8v5.5h-40.2h-0.3V6.3h-4.5v24.8h4.5H936.7z"/>
		<path id="XMLID_00000112607215091533316080000009476560083641057460_" class="st2" d="M715.3,107.8h-3.7c-0.1-0.8-0.3-1.6-0.6-2.4
			c-0.1-0.3-0.4-1.1-1-2.4h-5.5c-0.5,1.2-0.7,2-0.9,2.4c-0.3,0.9-0.4,1.7-0.5,2.4h-3.8c0.8-0.9,1.7-2.6,2.9-5.1l5-10.5l5.2,10.8
			C713.3,104.9,714.2,106.5,715.3,107.8z M709.1,101.1l-1.9-4.6l-1.9,4.6H709.1z"/>
		<path id="XMLID_00000150087902076014250970000014462227897905848763_" class="st2" d="M731.3,107.8h-3c0.3-0.9,0.4-1.9,0.4-3v-3.7
			c0-0.7-0.1-1.2-0.3-1.5c-0.2-0.4-0.7-0.6-1.4-0.6c-0.6,0-1.4,0.3-2.2,0.9v5.7c0,0.6,0.1,1.3,0.4,2.3h-3c0.3-0.7,0.4-1.6,0.4-2.9
			v-3.6c0-0.8-0.1-1.4-0.2-1.7c-0.2-0.5-0.7-0.7-1.4-0.7c-0.6,0-1.3,0.3-2.3,0.8l0,5.2c0,1.2,0.1,2.1,0.4,2.9h-3
			c0.3-0.9,0.4-2,0.4-3.2V101c0-1.6-0.1-2.9-0.4-3.8h2.6v2.1c0.9-1,1.3-1.5,1.5-1.6c0.5-0.4,1.2-0.7,1.9-0.7c1.4,0,2.3,0.8,2.5,2.4
			l1.6-1.7c0.6-0.5,1.2-0.7,2-0.7c1,0,1.7,0.4,2.1,1.3c0.3,0.6,0.4,1.4,0.4,2.6c0,3.2,0,4.4,0,3.5
			C730.8,105.7,731,106.9,731.3,107.8z"/>
		<path id="XMLID_00000165216225956525483630000012563755580507906696_" class="st2" d="M748,107.8h-3c0.3-0.9,0.4-1.9,0.4-3v-3.7
			c0-0.7-0.1-1.2-0.3-1.5c-0.2-0.4-0.7-0.6-1.4-0.6c-0.6,0-1.4,0.3-2.2,0.9v5.7c0,0.6,0.1,1.3,0.4,2.3h-3c0.3-0.7,0.4-1.6,0.4-2.9
			v-3.6c0-0.8-0.1-1.4-0.2-1.7c-0.2-0.5-0.7-0.7-1.4-0.7c-0.6,0-1.3,0.3-2.3,0.8l0,5.2c0,1.2,0.1,2.1,0.4,2.9h-3
			c0.3-0.9,0.4-2,0.4-3.2V101c0-1.6-0.1-2.9-0.4-3.8h2.6v2.1c0.9-1,1.3-1.5,1.5-1.6c0.5-0.4,1.2-0.7,1.9-0.7c1.4,0,2.3,0.8,2.5,2.4
			l1.6-1.7c0.6-0.5,1.2-0.7,2-0.7c1,0,1.7,0.4,2.1,1.3c0.3,0.6,0.4,1.4,0.4,2.6c0,3.2,0,4.4,0,3.5
			C747.6,105.7,747.7,106.9,748,107.8z"/>
		<path id="XMLID_00000058553745687790828240000000916669627714304442_" class="st2" d="M757.4,107.8h-2.6v-1l-1.7,1.3l-0.5,0
			c-0.9,0-1.6-0.2-2.2-0.6c-0.6-0.4-1-1.1-1-2c0-0.8,0.3-1.4,1-2c0.5-0.4,1.2-0.8,2.2-1.2c0.7-0.3,1.4-0.5,2.2-0.8v-0.6
			c0-1.5-0.7-2.3-2-2.3c-0.6,0-1.4,0.3-2.3,0.9l0.6-2c0.9-0.3,1.7-0.5,2.4-0.5c1.4,0,2.4,0.5,3,1.5c0.4,0.7,0.6,1.9,0.6,3.5
			c0,0.3,0,0.8,0,1.5c0,0.7,0,1.2,0,1.5C757,106.1,757.1,107.1,757.4,107.8z M754.8,106.3v-3H752c-0.2,0.7-0.3,1.2-0.3,1.6
			c0,1,0.6,1.4,1.9,1.4C753.9,106.4,754.3,106.3,754.8,106.3z"/>
		<path id="XMLID_00000152251516707975954870000005064617850891796111_" class="st2" d="M768.1,107.8h-3c0.3-0.7,0.4-1.7,0.4-3v-3.7
			c0-0.7-0.1-1.3-0.3-1.6c-0.2-0.5-0.7-0.7-1.4-0.7c-0.5,0-1.2,0.2-2.1,0.7v4.9c0,1.3,0.1,2.4,0.4,3.3h-3c0.2-0.7,0.3-1.2,0.4-1.5
			c0-0.3,0.1-0.8,0.1-1.6v-4c0-1.3-0.1-2.5-0.4-3.6h2.6v1.9l1.6-1.9c0.5-0.2,1-0.3,1.4-0.3c1.1,0,1.9,0.5,2.4,1.4
			c0.4,0.7,0.6,1.8,0.6,3.2v3.4C767.7,106.2,767.9,107.1,768.1,107.8z"/>
		<path id="XMLID_00000088106792161942556590000004161309720720346788_" class="st2" d="M781.1,100.8l-0.9,2h-4.4l-0.2-0.5l0.8-1.9
			h4.5L781.1,100.8z"/>
		<path id="XMLID_00000078740853003453661230000016838592065196961467_" class="st2" d="M794.2,92.5c-0.4,1.2-0.6,2.9-0.6,5.1
			c0,0.6,0,1.4,0,2.5c0,1.1,0,1.8,0,2.2c0,2,0,3.3-0.1,4c-0.2,1.5-0.6,2.7-1.2,3.5c-0.8,1-2,1.5-3.6,1.5c-0.5,0-0.9-0.1-1.3-0.2
			c1.8-0.9,2.9-2.1,3.3-3.7c0.3-0.9,0.4-2.6,0.4-5.2v-8c-0.9,0-2,0.2-3.3,0.4l0.8-2.1H794.2z"/>
		<path id="XMLID_00000112617614376063155290000007133610281153132706_" class="st2" d="M806.3,102.2c0,1.6-0.5,2.9-1.4,4
			c-1,1.2-2.2,1.8-3.8,1.8c-1.4,0-2.6-0.5-3.5-1.6c-0.9-1-1.3-2.3-1.3-3.7c0-1.6,0.5-3,1.4-4.1c1-1.1,2.3-1.7,3.9-1.7
			c1.4,0,2.6,0.5,3.5,1.6C805.9,99.5,806.3,100.8,806.3,102.2z M804.1,102.8c0-1.1-0.3-2-0.8-2.8c-0.6-1-1.4-1.5-2.4-1.5
			c-0.1,0-0.3,0-0.5,0c-1.2,0.6-1.9,1.8-1.9,3.5c0,1.1,0.3,2.1,0.8,3c0.6,1.1,1.5,1.6,2.5,1.5l0.5,0
			C803.5,105.7,804.1,104.4,804.1,102.8z"/>
		<path id="XMLID_00000062160258114275599780000000660363687976457623_" class="st2" d="M814.5,97.1l-0.4,2.3
			c-0.5-0.4-1-0.5-1.5-0.5c-0.5,0-1.2,0.2-2.2,0.7v5c0,1.1,0.1,2.2,0.4,3.2h-3c0.3-1,0.4-1.9,0.4-2.7v-4.2c0-1.5-0.1-2.7-0.4-3.8
			h2.6v1.9l1.7-1.9c0.5-0.2,1-0.3,1.4-0.3C813.8,96.9,814.2,97,814.5,97.1z"/>
		<path id="XMLID_00000098939146321527173380000008828086052377426842_" class="st2" d="M824.6,107.8H822v-1.5l-1.3,1.5
			c-0.5,0.2-0.9,0.3-1.3,0.3c-1.4,0-2.4-0.5-3.2-1.4c-0.7-0.8-1-1.9-1-3.4c0-1.7,0.5-3.2,1.5-4.4c1.1-1.3,2.4-2,4.1-2
			c0.4,0,0.8,0.1,1.2,0.2v-0.7c0-1.2-0.1-2.3-0.4-3.2l3-0.6c-0.3,1.1-0.4,2.2-0.4,3.6v8.5C824.2,105.8,824.3,106.9,824.6,107.8z
			 M822,105.7v-6.6c-0.5-0.4-1.1-0.6-1.8-0.6c-1.9,0-2.8,1.3-2.8,4c0,2.6,1,3.9,2.9,3.9C820.9,106.4,821.4,106.2,822,105.7z"/>
		<path id="XMLID_00000024712824572806736030000004075614048399450280_" class="st2" d="M834,107.8h-2.6v-1l-1.7,1.3l-0.5,0
			c-0.9,0-1.6-0.2-2.2-0.6c-0.6-0.4-1-1.1-1-2c0-0.8,0.3-1.4,1-2c0.5-0.4,1.2-0.8,2.2-1.2c0.7-0.3,1.4-0.5,2.2-0.8v-0.6
			c0-1.5-0.7-2.3-2-2.3c-0.6,0-1.4,0.3-2.3,0.9l0.6-2c0.9-0.3,1.7-0.5,2.4-0.5c1.4,0,2.4,0.5,3,1.5c0.4,0.7,0.6,1.9,0.6,3.5
			c0,0.3,0,0.8,0,1.5c0,0.7,0,1.2,0,1.5C833.6,106.1,833.7,107.1,834,107.8z M831.4,106.3v-3h-2.8c-0.2,0.7-0.3,1.2-0.3,1.6
			c0,1,0.6,1.4,1.9,1.4C830.5,106.4,830.9,106.3,831.4,106.3z"/>
		<path id="XMLID_00000108296905873875181260000014151124005204713601_" class="st2" d="M844.7,107.8h-3c0.3-0.7,0.4-1.7,0.4-3v-3.7
			c0-0.7-0.1-1.3-0.3-1.6c-0.2-0.5-0.7-0.7-1.4-0.7c-0.5,0-1.2,0.2-2.1,0.7v4.9c0,1.3,0.1,2.4,0.4,3.3h-3c0.2-0.7,0.3-1.2,0.4-1.5
			c0-0.3,0.1-0.8,0.1-1.6v-4c0-1.3-0.1-2.5-0.4-3.6h2.6v1.9l1.6-1.9c0.5-0.2,1-0.3,1.4-0.3c1.1,0,1.9,0.5,2.4,1.4
			c0.4,0.7,0.6,1.8,0.6,3.2v3.4C844.3,106.2,844.5,107.1,844.7,107.8z"/>
	</g>
</g>
</svg>
